<mxfile host="app.diagrams.net" modified="2023-11-08T15:34:03.989Z" agent="Mozilla/5.0 (Windows NT 10.0; Win64; x64) AppleWebKit/537.36 (KHTML, like Gecko) Chrome/119.0.0.0 Safari/537.36 Edg/119.0.0.0" version="22.0.8" etag="-oayIp0ldF7O52UvLAr8" type="github">
  <diagram name="PÃ¡gina-1" id="VfXJWQ5xdA7RQK4-NzEF">
    <mxGraphModel>
      <root>
        <mxCell id="0" />
        <mxCell id="1" parent="0" />
      </root>
    </mxGraphModel>
  </diagram>
</mxfile>
